<?xml version="1.0" encoding="UTF-8" standalone="no"?>
<!-- Created with Inkscape (http://www.inkscape.org/) -->

<svg
   width="400"
   height="400"
   viewBox="0 0 105.83333 105.83333"
   version="1.1"
   id="svg1"
   inkscape:version="1.3.2 (091e20e, 2023-11-25, custom)"
   sodipodi:docname="clock-all.svg"
   xmlns:inkscape="http://www.inkscape.org/namespaces/inkscape"
   xmlns:sodipodi="http://sodipodi.sourceforge.net/DTD/sodipodi-0.dtd"
   xmlns:xlink="http://www.w3.org/1999/xlink"
   xmlns="http://www.w3.org/2000/svg"
   xmlns:svg="http://www.w3.org/2000/svg">
  <sodipodi:namedview
     id="namedview1"
     pagecolor="#000000"
     bordercolor="#000000"
     borderopacity="0.25"
     inkscape:showpageshadow="2"
     inkscape:pageopacity="0.0"
     inkscape:pagecheckerboard="0"
     inkscape:deskcolor="#ffffff"
     inkscape:document-units="mm"
     inkscape:zoom="2.1267597"
     inkscape:cx="125.7782"
     inkscape:cy="214.64578"
     inkscape:window-width="2560"
     inkscape:window-height="1369"
     inkscape:window-x="1912"
     inkscape:window-y="-8"
     inkscape:window-maximized="1"
     inkscape:current-layer="g1" />
  <defs
     id="defs1">
    <color-profile
       name="Agfa-:-Swop-Standard"
       xlink:href="file:///C:/WINDOWS/system32/spool/drivers/color/RSWOP.icm"
       id="color-profile2" />
  </defs>
  <g
     id="g2"
     inkscape:label="clock">
    <circle
       style="fill:none;fill-opacity:1;stroke:#ffffff;stroke-width:2.64583;stroke-dasharray:none;stroke-opacity:1"
       id="path33"
       cx="52.916668"
       cy="52.916668"
       r="51.59375"
       inkscape:label="circle" />
    <g
       id="g79"
       inkscape:label="hours">
      <path
         d="m 26.0165,8.9705119 1.280542,2.2174361 2.291333,-1.3229171 -1.24902,-2.1631754 A 51.59375,51.59375 0 0 0 26.0165,8.9705119 Z"
         style="fill:#ffffff;stroke-width:2.64582"
         id="path79"
         inkscape:label="11" />
      <path
         d="M 7.7018555,28.339355 9.8650309,29.588375 11.187948,27.297042 8.9705119,26.0165 a 51.59375,51.59375 0 0 0 -1.2686564,2.322855 z"
         style="fill:#ffffff;stroke-width:2.64582"
         id="path78"
         inkscape:label="10" />
      <path
         sodipodi:type="star"
         style="fill:#ffffff;fill-opacity:1;stroke:none;stroke-width:5.21364;stroke-dasharray:none;stroke-opacity:1"
         id="path85"
         inkscape:flatsided="true"
         sodipodi:sides="3"
         sodipodi:cx="54.987797"
         sodipodi:cy="33.838642"
         sodipodi:r1="7.2327328"
         sodipodi:r2="3.6163661"
         sodipodi:arg1="1.5707963"
         sodipodi:arg2="2.6179939"
         inkscape:rounded="0"
         inkscape:randomized="0"
         d="m 54.987797,41.071375 -6.263731,-10.849099 12.527461,0 z"
         inkscape:transform-center-y="-1.1024311"
         transform="matrix(0,0.42240536,0.60968964,0,-17.103289,29.689523)"
         inkscape:label="9" />
      <path
         d="m 8.9705119,79.816833 2.2174361,-1.280541 -1.3229171,-2.291334 -2.1631754,1.24902 a 51.59375,51.59375 0 0 0 1.2686564,2.322855 z"
         style="fill:#ffffff;stroke-width:2.64582"
         id="path76"
         inkscape:label="8" />
      <path
         d="m 28.339355,98.131478 1.24902,-2.163176 -2.291333,-1.322916 -1.280542,2.217435 a 51.59375,51.59375 0 0 0 2.322855,1.268657 z"
         style="fill:#ffffff;stroke-width:2.64582"
         id="path75"
         inkscape:label="7" />
      <path
         d="m 54.239583,104.41585 v -2.55127 H 51.59375 v 2.55127 a 51.59375,51.59375 0 0 0 1.322917,0.0946 51.59375,51.59375 0 0 0 1.322916,-0.0946 z"
         style="fill:#ffffff;stroke-width:2.64582"
         id="path74"
         inkscape:label="6" />
      <path
         sodipodi:type="star"
         style="fill:#ffffff;fill-opacity:1;stroke:none;stroke-width:5.21364;stroke-dasharray:none;stroke-opacity:1"
         id="path83"
         inkscape:flatsided="true"
         sodipodi:sides="3"
         sodipodi:cx="54.987797"
         sodipodi:cy="33.838642"
         sodipodi:r1="7.2327328"
         sodipodi:r2="3.6163661"
         sodipodi:arg1="1.5707963"
         sodipodi:arg2="2.6179939"
         inkscape:rounded="0"
         inkscape:randomized="0"
         d="m 54.987797,41.071375 -6.263731,-10.849099 12.527461,0 z"
         inkscape:transform-center-y="-1.1024311"
         transform="matrix(0.42240536,0,0,-0.60968964,29.689526,122.93662)"
         inkscape:label="6" />
      <path
         d="m 79.816833,96.862821 -1.280541,-2.217435 -2.291334,1.322916 1.24902,2.163176 a 51.59375,51.59375 0 0 0 2.322855,-1.268657 z"
         style="fill:#ffffff;stroke-width:2.64582"
         id="path73"
         inkscape:label="5" />
      <path
         d="m 98.131478,77.493978 -2.163176,-1.24902 -1.322916,2.291334 2.217435,1.280541 a 51.59375,51.59375 0 0 0 1.268657,-2.322855 z"
         style="fill:#ffffff;stroke-width:2.64582"
         id="path72"
         inkscape:label="4" />
      <path
         sodipodi:type="star"
         style="fill:#ffffff;fill-opacity:1;stroke:none;stroke-width:5.21364;stroke-dasharray:none;stroke-opacity:1"
         id="path86"
         inkscape:flatsided="true"
         sodipodi:sides="3"
         sodipodi:cx="54.987797"
         sodipodi:cy="33.838642"
         sodipodi:r1="7.2327328"
         sodipodi:r2="3.6163661"
         sodipodi:arg1="1.5707963"
         sodipodi:arg2="2.6179939"
         inkscape:rounded="0"
         inkscape:randomized="0"
         d="m 54.987797,41.071375 -6.263731,-10.849099 12.527461,0 z"
         inkscape:transform-center-y="1.1024312"
         transform="matrix(0,0.42240536,-0.60968964,0,122.93662,29.689523)"
         inkscape:label="3" />
      <path
         d="m 96.914498,25.987044 -2.269112,1.309998 1.322916,2.291333 2.268596,-1.309998 a 51.59375,51.59375 0 0 0 -1.3224,-2.291333 z"
         style="fill:#ffffff;stroke-width:2.64582"
         id="path70"
         inkscape:label="2" />
      <path
         d="m 77.554956,7.5964355 -1.309998,2.2685954 2.291334,1.3229171 1.309997,-2.2691126 A 51.59375,51.59375 0 0 0 77.554956,7.5964355 Z"
         style="fill:#ffffff;stroke-width:2.64582"
         id="path69"
         inkscape:label="1" />
      <path
         sodipodi:type="star"
         style="fill:#ffffff;fill-opacity:1;stroke:none;stroke-width:5.21364;stroke-dasharray:none;stroke-opacity:1"
         id="path84"
         inkscape:flatsided="true"
         sodipodi:sides="3"
         sodipodi:cx="54.987797"
         sodipodi:cy="33.838642"
         sodipodi:r1="7.2327328"
         sodipodi:r2="3.6163661"
         sodipodi:arg1="1.5707963"
         sodipodi:arg2="2.6179939"
         inkscape:rounded="0"
         inkscape:randomized="0"
         d="m 54.987797,41.071375 -6.263731,-10.849099 12.527461,0 z"
         inkscape:transform-center-y="1.1024312"
         transform="matrix(0.42240537,0,0,0.60968963,29.689526,-17.103292)"
         inkscape:label="12" />
    </g>
  </g>
  <g
     id="g1"
     inkscape:label="needle">
    <circle
       style="fill:#ffffff;fill-opacity:1;stroke:none;stroke-width:2.64583;stroke-dasharray:none;stroke-opacity:1"
       id="path87"
       cx="52.916668"
       cy="52.916668"
       r="6.614583"
       inkscape:label="center" />
    <rect
       style="fill:#ffffff;fill-opacity:1;stroke:none;stroke-width:2.64583;stroke-dasharray:none;stroke-opacity:1"
       id="rect87"
       width="5.2916665"
       height="33.072918"
       x="50.270832"
       y="19.84375"
       inkscape:label="rectangle" />
    <path
       sodipodi:type="star"
       style="fill:#ffffff;fill-opacity:1;stroke:none;stroke-width:2.70643;stroke-dasharray:none;stroke-opacity:1"
       id="path88"
       inkscape:flatsided="true"
       sodipodi:sides="3"
       sodipodi:cx="29.293636"
       sodipodi:cy="27.622229"
       sodipodi:r1="9.0214224"
       sodipodi:r2="4.5107112"
       sodipodi:arg1="0.52359878"
       sodipodi:arg2="1.5707963"
       inkscape:rounded="0"
       inkscape:randomized="0"
       d="m 37.106417,32.13294 -15.625562,0 7.812781,-13.532134 z"
       inkscape:transform-center-y="-2.204861"
       transform="matrix(0.9776113,0,0,0.9776113,24.278877,-10.246858)"
       inkscape:label="arrow" />
  </g>
</svg>
