<?xml version="1.0" encoding="UTF-8" standalone="no"?>
<!-- Created with Inkscape (http://www.inkscape.org/) -->

<svg
   width="100mm"
   height="99.999992mm"
   viewBox="0 0 100 99.999992"
   version="1.1"
   id="svg1"
   inkscape:version="1.3.2 (091e20e, 2023-11-25, custom)"
   sodipodi:docname="daily-clock.svg"
   xmlns:inkscape="http://www.inkscape.org/namespaces/inkscape"
   xmlns:sodipodi="http://sodipodi.sourceforge.net/DTD/sodipodi-0.dtd"
   xmlns="http://www.w3.org/2000/svg"
   xmlns:svg="http://www.w3.org/2000/svg">
  <sodipodi:namedview
     id="namedview1"
     pagecolor="#000000"
     bordercolor="#000000"
     borderopacity="0.25"
     inkscape:showpageshadow="2"
     inkscape:pageopacity="0.0"
     inkscape:pagecheckerboard="0"
     inkscape:deskcolor="#d1d1d1"
     inkscape:document-units="mm"
     inkscape:zoom="1.4324567"
     inkscape:cx="151.83705"
     inkscape:cy="181.15731"
     inkscape:window-width="2560"
     inkscape:window-height="1351"
     inkscape:window-x="2551"
     inkscape:window-y="-9"
     inkscape:window-maximized="1"
     inkscape:current-layer="layer1" />
  <defs
     id="defs1" />
  <g
     inkscape:label="Layer 1"
     inkscape:groupmode="layer"
     id="layer1"
     transform="translate(-40.171708,-46.560465)">
    <path
       id="path2"
       style="color:#000000;fill:#ffffff;stroke-width:0.994041;-inkscape-stroke:none;fill-opacity:1"
       d="m 90.170682,46.560465 c -27.598619,0 -49.998974,22.400355 -49.998974,49.998973 0,27.598622 22.400355,50.001022 49.998974,50.001022 27.598628,0 50.001028,-22.4024 50.001028,-50.001022 0,-27.598618 -22.4024,-49.998973 -50.001028,-49.998973 z m -1.314005,2.663968 v 1.610401 h 2.630579 v -1.610401 c 7.671069,0.209498 14.888044,2.225248 21.228014,5.659263 l -0.81933,1.419311 2.27768,1.315032 0.81624,-1.41366 c 6.31671,3.890627 11.64776,9.221359 15.53845,15.537931 l -1.41418,0.816758 1.31504,2.277164 1.41983,-0.819841 c 3.4344,6.340209 5.44957,13.557384 5.65874,21.229042 h -1.60989 v 2.630578 h 1.60989 c -0.20955,7.670969 -2.22504,14.888119 -5.65926,21.228019 l -1.41931,-0.81933 -1.31504,2.27768 1.41315,0.81624 c -3.89068,6.31629 -9.22157,11.64681 -15.53792,15.53742 l -0.81574,-1.41315 -2.27716,1.31452 0.81933,1.41931 c -6.34013,3.43446 -13.557219,5.45025 -21.228534,5.65978 v -1.60989 h -2.630579 v 1.60989 c -7.671519,-0.20917 -14.888682,-2.22448 -21.229043,-5.65876 l 0.819841,-1.42033 -2.277164,-1.31452 -0.816758,1.41417 c -6.316821,-3.89055 -11.647474,-9.22138 -15.538444,-15.53792 l 1.414687,-0.81676 -1.315547,-2.2782 -1.420851,0.82036 c -3.434352,-6.33999 -5.449701,-13.5574 -5.659262,-21.228529 h 1.611941 v -2.630578 h -1.611941 c 0.20917,-7.671742 2.224794,-14.888783 5.659262,-21.229042 l 1.421365,0.820354 1.315033,-2.277677 -1.415715,-0.817272 c 3.891051,-6.316941 9.222141,-11.64784 15.539472,-15.538444 l 0.816758,1.414687 2.277678,-1.315032 -0.819841,-1.419824 c 6.340264,-3.433895 13.557172,-5.449609 21.228529,-5.65875 z" />
  </g>
</svg>
